<svg width="16" height="14" viewBox="0 0 16 14" fill="none" xmlns="http://www.w3.org/2000/svg">
<path d="M12.6562 8H15.3438V0H12.6562V8ZM10 0H4C3.72917 0 3.47917 0.0729167 3.25 0.21875C3.04167 0.364583 2.88542 0.5625 2.78125 0.8125L0.75 5.5C0.6875 5.66667 0.65625 5.83333 0.65625 6V7.34375C0.65625 7.69792 0.78125 8.01042 1.03125 8.28125C1.30208 8.53125 1.625 8.65625 2 8.65625H6.21875L5.5625 11.7188C5.5625 11.7812 5.5625 11.8438 5.5625 11.9062C5.5625 12.1979 5.65625 12.4375 5.84375 12.625L6.5625 13.3438L10.9375 8.9375C11.2083 8.6875 11.3438 8.375 11.3438 8V1.34375C11.3438 0.96875 11.2083 0.65625 10.9375 0.40625C10.6875 0.135417 10.375 0 10 0Z" fill="#4C3AEF"/>
</svg>
